<svg width="50" height="50" viewBox="0 0 50 50" fill="none" xmlns="http://www.w3.org/2000/svg">
<path d="M25 0C11.1931 0 0 11.1931 0 25C0 38.8069 11.1931 50 25 50C38.8069 50 50 38.8069 50 25C50 11.1931 38.8069 0 25 0ZM35.5167 22.1727C35.5146 22.1727 35.5113 22.1732 35.5075 22.1727H33.8649V34.7307C33.8649 36.1624 32.7035 37.3242 31.2714 37.3242H27.5969V29.9757C27.5969 29.4984 27.2096 29.1111 26.7322 29.1111H21.761C21.2836 29.1111 20.8963 29.4984 20.8963 29.9757V37.3242H17.2219C15.7897 37.3242 14.6283 36.1629 14.6283 34.7307V22.1727H12.9854C12.5311 22.1727 12.1258 21.8886 11.9699 21.4619C11.8144 21.0352 11.9418 20.5566 12.2892 20.2645L23.55 10.7914C23.9519 10.4532 24.5391 10.4532 24.9415 10.7914L36.1228 20.1979C36.4082 20.3919 36.5956 20.7201 36.596 21.0923C36.5977 21.6891 36.1136 22.1727 35.5167 22.1727L35.5167 22.1727Z" fill="#14AEDE"/>
</svg>
