<svg width="50" height="50" viewBox="0 0 50 50" fill="none" xmlns="http://www.w3.org/2000/svg">
<circle cx="25" cy="25" r="25" fill="#DE471F" fill-opacity="0.5"/>
<path d="M16.5157 31.618H33.4305C35.8046 31.618 37.9984 30.3513 39.1854 28.2954C40.3725 26.2394 40.3725 23.706 39.1854 21.65C37.9984 19.5941 35.8046 18.3274 33.4305 18.3274H16.5157C14.1416 18.3274 11.9479 19.5941 10.7608 21.65C9.57378 23.706 9.57378 26.2394 10.7608 28.2954C11.9479 30.3513 14.1416 31.618 16.5157 31.618ZM16.5157 21.9522H33.4305C34.5097 21.9522 35.5071 22.5278 36.0465 23.4625C36.5863 24.3971 36.5863 25.5483 36.0465 26.4829C35.5071 27.4176 34.5097 27.9932 33.4305 27.9932H16.5157C15.4366 27.9932 14.4392 27.4176 13.8998 26.4829C13.36 25.5483 13.36 24.3971 13.8998 23.4625C14.4392 22.5278 15.4366 21.9522 16.5157 21.9522Z" fill="white"/>
<path d="M9.87067 9.87061H40.0756V13.4954H9.87067V9.87061Z" fill="white"/>
<path d="M9.87067 36.4509H40.0756V40.0757H9.87067V36.4509Z" fill="white"/>
</svg>
