<svg width="59" height="64" viewBox="0 0 59 64" fill="none" xmlns="http://www.w3.org/2000/svg">
<rect width="32.2222" height="64" fill="#14AEDE"/>
<path d="M36.5195 0C39.3405 0 42.1339 0.551803 44.7401 1.6239C47.3464 2.696 49.7145 4.26741 51.7092 6.24839C53.704 8.22937 55.2863 10.5811 56.3658 13.1694C57.4454 15.7577 58.001 18.5318 58.001 21.3333C58.001 24.1349 57.4454 26.909 56.3658 29.4972C55.2863 32.0855 53.704 34.4373 51.7092 36.4183C49.7145 38.3993 47.3464 39.9707 44.7401 41.0428C42.1339 42.1149 39.3405 42.6667 36.5195 42.6667L36.5195 0Z" fill="#2E2D2C"/>
<ellipse cx="45.1121" cy="55.4667" rx="8.59259" ry="8.53333" fill="#2E2D2C"/>
</svg>
