<svg width="18" height="18" viewBox="0 0 18 18" fill="none" xmlns="http://www.w3.org/2000/svg">
<path fill-rule="evenodd" clip-rule="evenodd" d="M12.6416 11.2234L18 16.5818L16.5818 18L11.2234 12.6416C10.0514 13.5193 8.5961 14.0393 7.01941 14.0393C3.1426 14.0393 0 10.8964 0 7.01941C0 3.14243 3.14268 0 7.01941 0C10.8961 0 14.0393 3.14268 14.0393 7.01941C14.0393 8.59615 13.5193 10.0515 12.6416 11.2234ZM7.01941 12.0334C9.78858 12.0334 12.0335 9.78858 12.0335 7.01933C12.0335 4.25015 9.78867 2.00564 7.01941 2.00564C4.25024 2.00564 2.00573 4.25033 2.00573 7.01933C2.00573 9.7885 4.25041 12.0334 7.01941 12.0334Z" fill="#14AEDE" fill-opacity="0.5"/>
</svg>
