<svg width="15" height="15" viewBox="0 0 15 15" fill="none" xmlns="http://www.w3.org/2000/svg">
<path d="M7.5 0C5.51098 0 3.60323 0.790083 2.19675 2.19651C0.790278 3.60301 0 5.51073 0 7.49986C0 9.48899 0.79035 11.3967 2.19675 12.8032C3.60323 14.2099 5.5109 15 7.5 15C9.48909 15 11.3968 14.2099 12.8032 12.8032C14.2097 11.3967 15 9.48899 15 7.49986C15 5.51073 14.2096 3.60301 12.8032 2.19651C11.3968 0.790011 9.48909 0 7.5 0ZM4.94997 11.3255L3.60013 9.97564L9.97516 3.60049L11.325 4.95035L4.94997 11.3255Z" fill="#DE471F"/>
<path d="M4.94997 11.3255L3.60013 9.97564L9.97516 3.60049L11.325 4.95035L4.94997 11.3255Z" fill="white"/>
</svg>
